HIERARCHY
ROOT Hips
{
 OFFSET 0.000000 0.000000 0.000000
 CHANNELS 6 Xposition Yposition Zposition Yrotation Xrotation Zrotation
 JOINT Chest
 {
  OFFSET 0.000000 9.585900 0.002600
  CHANNELS 3 Yrotation Xrotation Zrotation
  JOINT Chest2
  {
   OFFSET 0.000000 9.601200 -0.005300
   CHANNELS 3 Yrotation Xrotation Zrotation
   JOINT Chest3
   {
    OFFSET 0.000000 9.561800 0.000000
    CHANNELS 3 Yrotation Xrotation Zrotation
    JOINT Chest4
    {
     OFFSET 0.000000 9.552100 0.000000
     CHANNELS 3 Yrotation Xrotation Zrotation
     JOINT Neck
     {
      OFFSET 0.000000 14.453000 0.000000
      CHANNELS 3 Yrotation Xrotation Zrotation
      JOINT Head
      {
       OFFSET 0.000000 8.936500 -0.011300
       CHANNELS 3 Yrotation Xrotation Zrotation
       End Site
       {
        OFFSET 0.000000 17.073600 -0.006000
       }
      }
     }
     JOINT RightCollar
     {
      OFFSET -2.921100 9.558500 0.000000
      CHANNELS 3 Yrotation Xrotation Zrotation
      JOINT RightShoulder
      {
       OFFSET -13.519700 0.000000 0.000000
       CHANNELS 3 Yrotation Xrotation Zrotation
       JOINT RightElbow
       {
        OFFSET 0.000000 -29.696600 0.000000
        CHANNELS 3 Yrotation Xrotation Zrotation
        JOINT RightWrist
        {
         OFFSET 0.000000 -24.004700 0.000000
         CHANNELS 3 Yrotation Xrotation Zrotation
         End Site
         {
          OFFSET 0.000000 -17.728500 0.000000
         }
        }
       }
      }
     }
     JOINT LeftCollar
     {
      OFFSET 2.921100 9.558500 0.000000
      CHANNELS 3 Yrotation Xrotation Zrotation
      JOINT LeftShoulder
      {
       OFFSET 13.519700 0.000000 0.000000
       CHANNELS 3 Yrotation Xrotation Zrotation
       JOINT LeftElbow
       {
        OFFSET 0.000000 -29.696600 0.000000
        CHANNELS 3 Yrotation Xrotation Zrotation
        JOINT LeftWrist
        {
         OFFSET 0.000000 -24.004700 0.000000
         CHANNELS 3 Yrotation Xrotation Zrotation
         End Site
         {
          OFFSET 0.000000 -17.728500 0.000000
         }
        }
       }
      }
     }
    }
   }
  }
 }
 JOINT RightHip
 {
  OFFSET -7.771700 -0.012900 -0.001300
  CHANNELS 3 Yrotation Xrotation Zrotation
  JOINT RightKnee
  {
   OFFSET 0.000000 -40.869800 0.001200
   CHANNELS 3 Yrotation Xrotation Zrotation
   JOINT RightAnkle
   {
    OFFSET 0.000000 -39.717900 0.002100
    CHANNELS 3 Yrotation Xrotation Zrotation
    JOINT RightToe
    {
     OFFSET 0.000000 -4.965400 11.033500
     CHANNELS 3 Yrotation Xrotation Zrotation
     End Site
     {
      OFFSET 0.000000 -1.423100 5.872300
     }
    }
   }
  }
 }
 JOINT LeftHip
 {
  OFFSET 7.771700 -0.012900 -0.001300
  CHANNELS 3 Yrotation Xrotation Zrotation
  JOINT LeftKnee
  {
   OFFSET 0.000000 -40.869800 0.001200
   CHANNELS 3 Yrotation Xrotation Zrotation
   JOINT LeftAnkle
   {
    OFFSET 0.000000 -39.717900 0.002100
    CHANNELS 3 Yrotation Xrotation Zrotation
    JOINT LeftToe
    {
     OFFSET 0.000000 -4.965400 11.033500
     CHANNELS 3 Yrotation Xrotation Zrotation
     End Site
     {
      OFFSET 0.000000 -1.423100 5.872300
     }
    }
   }
  }
 }
}
MOTION
Frames: 8
Frame Time: 0.008333
-101.700166 57.566991 94.201895 174.951433 -32.235928 -1.736416 2.895262 21.006126 3.038519 0.280841 2.775718 0.354842 0.469525 4.526082 0.587569 2.177868 17.870514 2.605699 1.257403 9.436226 -1.108836 2.950166 -18.208902 -2.752847 4.234828 -3.323328 0.292839 16.303092 -18.675671 -21.403993 160.019600 -74.186952 -124.586414 17.815564 -16.528153 -31.417439 -6.800639 -4.674682 -3.588273 -5.882867 -16.356228 -0.809938 36.388934 -54.691135 -71.194044 2.690226 -7.464579 14.400312 8.825475 -43.749916 -2.849568 -9.638432 68.572544 -11.939368 10.140141 21.708801 8.619439 -0.349370 -15.776869 2.314568 -6.904884 -40.594475 4.776442 27.076425 66.770900 24.409140 -15.815559 4.086548 -2.731972 0.092774 0.299512 0.036701
-101.700789 57.566892 94.202443 174.951312 -32.230881 -1.730232 2.889711 21.002928 3.029102 0.277554 2.778720 0.354266 0.469596 4.527568 0.587563 2.177872 17.873081 2.605351 1.241669 9.450330 -1.121363 2.961737 -18.221205 -2.751338 4.241586 -3.331273 0.288326 16.303646 -18.678429 -21.405188 159.995730 -74.184434 -124.560450 17.816210 -16.528701 -31.432620 -6.797036 -4.680886 -3.587364 -5.889708 -16.355693 -0.809914 36.411090 -54.698046 -71.208095 2.684306 -7.457361 14.398996 8.829896 -43.756491 -2.856362 -9.647244 68.572275 -11.949968 10.129477 21.714085 8.619546 -0.347872 -15.777816 2.313427 -6.905785 -40.600954 4.766532 27.084950 66.770720 24.419604 -15.805390 4.091578 -2.728653 0.088424 0.294766 0.031175
-101.701207 57.566684 94.203383 174.954368 -32.224052 -1.729496 2.881571 20.998556 3.022249 0.277008 2.782368 0.356387 0.467790 4.529101 0.586745 2.181248 17.871147 2.605175 1.233490 9.458488 -1.128701 2.954437 -18.215015 -2.761347 4.240865 -3.338439 0.285417 16.308290 -18.679314 -21.406907 159.974660 -74.181926 -124.540383 17.810885 -16.529955 -31.440216 -6.797344 -4.684959 -3.586171 -5.896091 -16.354779 -0.812767 36.424010 -54.704385 -71.211022 2.678375 -7.454037 14.395397 8.830868 -43.762558 -2.864895 -9.640244 68.570626 -11.942581 10.140132 21.711758 8.620594 -0.351090 -15.775405 2.315229 -6.909734 -40.607870 4.763111 27.049250 66.772653 24.392268 -15.795325 4.098394 -2.732917 0.096451 0.290378 0.028386
-101.702657 57.566911 94.203549 174.954421 -32.222645 -1.722012 2.872052 21.007575 3.012892 0.281145 2.779447 0.354965 0.469039 4.524234 0.587454 2.179949 17.874918 2.605340 1.224656 9.466722 -1.138693 2.925853 -18.199261 -2.786810 4.235134 -3.345239 0.282056 16.318602 -18.684268 -21.407852 159.934665 -74.184744 -124.504143 17.804356 -16.537658 -31.454134 -6.798284 -4.685774 -3.585316 -5.899928 -16.357421 -0.816660 36.433214 -54.709930 -71.215086 2.668987 -7.450352 14.393465 8.834364 -43.762185 -2.875912 -9.624820 68.570316 -11.929833 10.135133 21.708944 8.620009 -0.355074 -15.771514 2.316689 -6.905265 -40.609240 4.753401 27.049088 66.771318 24.392711 -15.798231 4.100963 -2.731184 0.094109 0.289041 0.027218
-101.703528 57.567099 94.203754 174.959607 -32.221578 -1.721046 2.863461 21.012826 3.006899 0.281237 2.780999 0.355024 0.471430 4.525201 0.587356 2.180956 17.878109 2.605424 1.212024 9.469005 -1.147255 2.905802 -18.194973 -2.806918 4.229358 -3.355076 0.279715 16.328168 -18.689426 -21.413217 159.918737 -74.183460 -124.492893 17.796204 -16.541858 -31.469258 -6.816356 -4.690515 -3.571225 -5.893077 -16.360280 -0.825046 36.457051 -54.719651 -71.229699 2.658170 -7.443283 14.392101 8.825062 -43.761662 -2.875715 -9.592613 68.570606 -11.904032 10.121568 21.708142 8.609875 -0.350395 -15.769535 2.323435 -6.904605 -40.608213 4.744034 27.051195 66.765411 24.399377 -15.798028 4.100628 -2.732434 0.088157 0.291418 0.030252
-101.703206 57.567328 94.203829 174.962265 -32.222373 -1.725170 2.857824 21.019478 3.007656 0.280930 2.782274 0.355177 0.471007 4.533744 0.586812 2.185234 17.878707 2.605742 1.197133 9.465261 -1.156167 2.893535 -18.194960 -2.823925 4.229652 -3.368405 0.276045 16.334818 -18.691067 -21.419939 159.924407 -74.183227 -124.497968 17.794816 -16.540921 -31.478923 -6.818236 -4.705802 -3.566015 -5.895595 -16.357615 -0.824194 36.476055 -54.738079 -71.252311 2.664934 -7.434125 14.398795 8.808493 -43.759619 -2.862644 -9.552240 68.569825 -11.873413 10.106491 21.706463 8.602651 -0.346546 -15.766241 2.328100 -6.910030 -40.608020 4.745020 27.029065 66.773020 24.382637 -15.777100 4.098154 -2.732194 0.081508 0.290918 0.029918
-101.702122 57.567188 94.204276 174.968180 -32.220820 -1.734672 2.848427 21.024131 3.011638 0.282824 2.781357 0.355308 0.472969 4.532806 0.586639 2.178137 17.887022 2.604385 1.187644 9.463487 -1.164406 2.881439 -18.194279 -2.844091 4.239657 -3.378942 0.272831 16.341235 -18.687892 -21.432246 159.938476 -74.182768 -124.513481 17.798780 -16.540196 -31.493728 -6.812820 -4.716228 -3.563566 -5.901022 -16.355288 -0.819469 36.492417 -54.749796 -71.264504 2.669273 -7.430823 14.399085 8.800513 -43.760571 -2.842802 -9.572154 68.565915 -11.899749 10.091345 21.705909 8.592253 -0.337808 -15.763505 2.339796 -6.926025 -40.612231 4.754955 27.036621 66.778128 24.390541 -15.772826 4.100122 -2.729671 0.078939 0.286590 0.025563
-101.701346 57.566377 94.205412 174.966799 -32.214079 -1.737727 2.846663 21.020583 3.013786 0.284978 2.779941 0.355325 0.466712 4.539227 0.587371 2.175032 17.888853 2.606367 1.181741 9.461135 -1.175646 2.863210 -18.191398 -2.867443 4.251120 -3.385732 0.265195 16.339614 -18.688595 -21.437673 159.946477 -74.181401 -124.522576 17.810802 -16.546609 -31.523895 -6.808199 -4.724464 -3.566625 -5.902537 -16.354102 -0.815642 36.504597 -54.759152 -71.273397 2.667799 -7.422734 14.391270 8.813356 -43.768168 -2.842444 -9.546752 68.566475 -11.870914 10.065172 21.708424 8.588156 -0.331919 -15.762047 2.343952 -6.935695 -40.620901 4.761300 27.047538 66.781108 24.402558 -15.765950 4.099806 -2.729889 0.073768 0.284397 0.023808
